# 3ds Max Wavefront OBJ Exporter v0.97b - (c)2007 guruware
# File Created: 26.11.2019 12:38:52

mtllib cube2.mtl

#
# object Box001
#

v  -25.0000 -25.0000 0.0000
v  -25.0000 25.0000 0.0000
v  25.0000 25.0000 0.0000
v  25.0000 -25.0000 0.0000
v  -25.0000 -25.0000 50.0000
v  25.0000 -25.0000 50.0000
v  25.0000 25.0000 50.0000
v  -25.0000 25.0000 50.0000
# 8 vertices

vn -0.5774 -0.5774 -0.5774
vn -0.5774 0.5774 -0.5774
vn 0.5774 0.5774 -0.5774
vn 0.5774 -0.5774 -0.5774
vn -0.5774 -0.5774 0.5774
vn 0.5774 -0.5774 0.5774
vn 0.5774 0.5774 0.5774
vn -0.5774 0.5774 0.5774
# 8 vertex normals

vt 1.0000 0.0000 -0.0000
vt 1.0000 1.0000 -0.0000
vt 0.0000 1.0000 -0.0000
vt 0.0000 0.0000 -0.0000
vt 0.0000 0.0000 1.0000
vt 1.0000 0.0000 1.0000
vt 1.0000 1.0000 1.0000
vt 0.0000 1.0000 1.0000
vt 0.0000 -0.0000 0.0000
vt 1.0000 -0.0000 0.0000
vt 1.0000 1.0000 0.0000
vt 0.0000 1.0000 0.0000
vt 0.0000 -0.0000 1.0000
vt 1.0000 -0.0000 1.0000
# 14 texture coords

o Box001
g Box001
usemtl wire_115115115
f 1/1/1 2/2/2 3/3/3 4/4/4 
f 5/5/5 6/6/6 7/7/7 8/8/8 
f 1/9/1 4/10/4 6/11/6 5/12/5 
f 4/13/4 3/14/3 7/7/7 6/8/6 
f 3/13/3 2/14/2 8/7/8 7/8/7 
f 2/9/2 1/10/1 5/11/5 8/12/8 
# 6 polygons

